<mxfile host="65bd71144e">
    <diagram id="__QaNmah6qcJjaVukKD4" name="Page-1">
        <mxGraphModel dx="1695" dy="751" grid="1" gridSize="10" guides="1" tooltips="1" connect="1" arrows="1" fold="1" page="1" pageScale="1" pageWidth="850" pageHeight="1100" math="0" shadow="0">
            <root>
                <mxCell id="0"/>
                <mxCell id="1" parent="0"/>
                <mxCell id="102" value="" style="rounded=0;whiteSpace=wrap;html=1;strokeWidth=2;" parent="1" vertex="1">
                    <mxGeometry x="280" y="389" width="380" height="360" as="geometry"/>
                </mxCell>
                <mxCell id="78" value="IAS" style="rounded=0;whiteSpace=wrap;html=1;strokeWidth=2;" parent="1" vertex="1">
                    <mxGeometry x="403" y="280" width="120" height="60" as="geometry"/>
                </mxCell>
                <mxCell id="79" value="CAP Application" style="rounded=0;whiteSpace=wrap;html=1;strokeWidth=2;" parent="1" vertex="1">
                    <mxGeometry x="510" y="630" width="120" height="60" as="geometry"/>
                </mxCell>
                <mxCell id="80" value="IAS &lt;br&gt;service instance" style="rounded=1;whiteSpace=wrap;html=1;strokeWidth=2;arcSize=40;" parent="1" vertex="1">
                    <mxGeometry x="405" y="410" width="120" height="60" as="geometry"/>
                </mxCell>
                <mxCell id="82" value="App Router" style="rounded=0;whiteSpace=wrap;html=1;strokeWidth=2;" parent="1" vertex="1">
                    <mxGeometry x="305" y="630" width="120" height="60" as="geometry"/>
                </mxCell>
                <mxCell id="85" value="IAS&lt;br&gt;service binding" style="rounded=1;whiteSpace=wrap;html=1;strokeWidth=2;arcSize=40;" parent="1" vertex="1">
                    <mxGeometry x="480" y="516" width="120" height="60" as="geometry"/>
                </mxCell>
                <mxCell id="94" value="" style="edgeStyle=elbowEdgeStyle;elbow=horizontal;rounded=1;startArrow=none;endArrow=none;html=1;endFill=0;align=center;labelBackgroundColor=none;exitX=1;exitY=0.5;exitDx=0;exitDy=0;entryX=0;entryY=0.5;entryDx=0;entryDy=0;" parent="1" target="79" edge="1" source="82">
                    <mxGeometry relative="1" as="geometry">
                        <mxPoint x="760" y="465" as="sourcePoint"/>
                        <mxPoint x="480" y="660" as="targetPoint"/>
                        <mxPoint x="10" as="offset"/>
                    </mxGeometry>
                </mxCell>
                <mxCell id="95" value="" style="ellipse;whiteSpace=wrap;html=1;aspect=fixed;strokeWidth=2;rotatable=0;connectable=0;deletable=0;" parent="94" vertex="1">
                    <mxGeometry width="20" height="20" relative="1" as="geometry">
                        <mxPoint x="-2" y="-7" as="offset"/>
                    </mxGeometry>
                </mxCell>
                <mxCell id="98" value="" style="edgeStyle=elbowEdgeStyle;elbow=vertical;rounded=1;endArrow=classic;html=1;endFill=1;align=center;labelBackgroundColor=none;entryX=0.5;entryY=1;entryDx=0;entryDy=0;" parent="1" edge="1" target="85">
                    <mxGeometry width="50" height="50" relative="1" as="geometry">
                        <mxPoint x="540" y="630" as="sourcePoint"/>
                        <mxPoint x="540.3599999999999" y="574.1999999999999" as="targetPoint"/>
                        <mxPoint y="-10" as="offset"/>
                    </mxGeometry>
                </mxCell>
                <mxCell id="100" value="" style="edgeStyle=elbowEdgeStyle;elbow=vertical;rounded=1;endArrow=classic;html=1;endFill=1;align=center;labelBackgroundColor=none;entryX=0.703;entryY=1.006;entryDx=0;entryDy=0;entryPerimeter=0;exitX=0.5;exitY=0;exitDx=0;exitDy=0;" parent="1" edge="1" target="80" source="85">
                    <mxGeometry width="50" height="50" relative="1" as="geometry">
                        <mxPoint x="540" y="510" as="sourcePoint"/>
                        <mxPoint x="540" y="470" as="targetPoint"/>
                        <mxPoint y="-10" as="offset"/>
                    </mxGeometry>
                </mxCell>
                <mxCell id="101" value="" style="edgeStyle=elbowEdgeStyle;elbow=vertical;rounded=1;endArrow=classic;html=1;endFill=1;align=center;labelBackgroundColor=none;entryX=0.5;entryY=0;entryDx=0;entryDy=0;exitX=0.5;exitY=1;exitDx=0;exitDy=0;" parent="1" source="78" edge="1">
                    <mxGeometry width="50" height="50" relative="1" as="geometry">
                        <mxPoint x="473" y="350" as="sourcePoint"/>
                        <mxPoint x="463" y="410" as="targetPoint"/>
                        <mxPoint y="-10" as="offset"/>
                        <Array as="points">
                            <mxPoint x="448" y="360"/>
                        </Array>
                    </mxGeometry>
                </mxCell>
                <mxCell id="114" value="" style="edgeStyle=elbowEdgeStyle;elbow=horizontal;rounded=1;startArrow=none;endArrow=none;html=1;endFill=0;align=center;labelBackgroundColor=none;entryX=0.4;entryY=-0.033;entryDx=0;entryDy=0;entryPerimeter=0;" parent="1" edge="1">
                    <mxGeometry relative="1" as="geometry">
                        <mxPoint x="400" y="310" as="sourcePoint"/>
                        <mxPoint x="326" y="630" as="targetPoint"/>
                        <mxPoint x="10" as="offset"/>
                        <Array as="points">
                            <mxPoint x="326" y="470"/>
                        </Array>
                    </mxGeometry>
                </mxCell>
                <mxCell id="115" value="" style="ellipse;whiteSpace=wrap;html=1;aspect=fixed;strokeWidth=2;rotatable=0;connectable=0;deletable=0;" parent="114" vertex="1">
                    <mxGeometry width="20" height="20" relative="1" as="geometry">
                        <mxPoint x="-10" y="4" as="offset"/>
                    </mxGeometry>
                </mxCell>
                <mxCell id="118" value="Application Deployment" style="text;html=1;align=center;verticalAlign=middle;resizable=0;points=[];autosize=1;strokeColor=none;fillColor=none;" parent="1" vertex="1">
                    <mxGeometry x="390" y="720" width="150" height="30" as="geometry"/>
                </mxCell>
                <mxCell id="119" value="&lt;span style=&quot;color: rgb(63, 63, 63);&quot;&gt;&lt;font style=&quot;font-size: 14px;&quot;&gt;mTLS / &lt;br&gt;OAuth 2&lt;/font&gt;&lt;/span&gt;" style="text;html=1;align=center;verticalAlign=middle;resizable=0;points=[];autosize=1;strokeColor=none;fillColor=none;" parent="1" vertex="1">
                    <mxGeometry x="437" y="670" width="70" height="50" as="geometry"/>
                </mxCell>
                <mxCell id="120" value="" style="shape=stencil(vVNRbsMgDD2NPycxqKb9Tm13gN0gA6dBpRABbbOdfgEnWpDSpZmmRSiI5+eHbWwQ29BULQJnDYgdcM5Z/+uP1/JYhRZlJKzWHSqCQ/TuiFet4uCubYNex2QVe2A7YC+QNBiI7XsljwfvzlYlG6G0Sh7w1zlqSaqdx2WxkU1xSmec7wHac7zWWaRU+lvvUaqdjUF/porlLas8slUaEbtIxSP3t6HGRh8sIRJtRE9wV95xmdBOWikzxP9B0Gai9UBvm3Hyvi9FbcxMqYALlr9VubZVao2Sd4s9+pzcBb8Tfyry+6HUS7JG24nsKDTq8r/S3fxPvM+/1pXGBVznmody7ilv9Q8N3HKbZOG5WSZSNg9dvP8C);whiteSpace=wrap;html=1;;connectable=0;allowArrows=0;rotatable=1;rotation=180;editable=0;expand=0;aspect=fixed;" parent="1" vertex="1">
                    <mxGeometry x="322" y="399" width="30" height="30" as="geometry"/>
                </mxCell>
                <mxCell id="121" value="" style="shape=stencil(vVNRbsMgDD2NPycxqKb9Tm13gN0gA6dBpRABbbOdfgEnWpDSpZmmRSiI5+eHbWwQ29BULQJnDYgdcM5Z/+uP1/JYhRZlJKzWHSqCQ/TuiFet4uCubYNex2QVe2A7YC+QNBiI7XsljwfvzlYlG6G0Sh7w1zlqSaqdx2WxkU1xSmec7wHac7zWWaRU+lvvUaqdjUF/porlLas8slUaEbtIxSP3t6HGRh8sIRJtRE9wV95xmdBOWikzxP9B0Gai9UBvm3Hyvi9FbcxMqYALlr9VubZVao2Sd4s9+pzcBb8Tfyry+6HUS7JG24nsKDTq8r/S3fxPvM+/1pXGBVznmody7ilv9Q8N3HKbZOG5WSZSNg9dvP8C);whiteSpace=wrap;html=1;;connectable=0;allowArrows=0;rotatable=1;rotation=-90;editable=0;expand=0;aspect=fixed;" parent="1" vertex="1">
                    <mxGeometry x="460" y="620" width="30" height="30" as="geometry"/>
                </mxCell>
                <mxCell id="122" value="&lt;span style=&quot;color: rgb(63, 63, 63);&quot;&gt;&lt;font style=&quot;font-size: 14px;&quot;&gt;mTLS&lt;/font&gt;&lt;/span&gt;" style="text;html=1;align=center;verticalAlign=middle;resizable=0;points=[];autosize=1;strokeColor=none;fillColor=none;" parent="1" vertex="1">
                    <mxGeometry x="321" y="447" width="60" height="30" as="geometry"/>
                </mxCell>
                <mxCell id="123" value="IAS&lt;br&gt;service binding" style="rounded=1;whiteSpace=wrap;html=1;strokeWidth=2;arcSize=40;" vertex="1" parent="1">
                    <mxGeometry x="340" y="516" width="120" height="60" as="geometry"/>
                </mxCell>
                <mxCell id="125" value="" style="edgeStyle=elbowEdgeStyle;elbow=vertical;rounded=1;endArrow=classic;html=1;endFill=1;align=center;labelBackgroundColor=none;entryX=0.5;entryY=1;entryDx=0;entryDy=0;" edge="1" parent="1" target="123">
                    <mxGeometry width="50" height="50" relative="1" as="geometry">
                        <mxPoint x="399.5" y="630" as="sourcePoint"/>
                        <mxPoint x="400" y="580" as="targetPoint"/>
                        <mxPoint y="-10" as="offset"/>
                    </mxGeometry>
                </mxCell>
                <mxCell id="126" value="" style="edgeStyle=elbowEdgeStyle;elbow=vertical;rounded=1;endArrow=classic;html=1;endFill=1;align=center;labelBackgroundColor=none;entryX=0.25;entryY=1;entryDx=0;entryDy=0;exitX=0.5;exitY=0;exitDx=0;exitDy=0;" edge="1" parent="1" source="123" target="80">
                    <mxGeometry width="50" height="50" relative="1" as="geometry">
                        <mxPoint x="364.5" y="510" as="sourcePoint"/>
                        <mxPoint x="540" y="480" as="targetPoint"/>
                        <mxPoint y="-10" as="offset"/>
                    </mxGeometry>
                </mxCell>
                <mxCell id="127" value="Browser" style="rounded=0;whiteSpace=wrap;html=1;strokeWidth=2;" vertex="1" parent="1">
                    <mxGeometry x="100" y="632" width="120" height="60" as="geometry"/>
                </mxCell>
                <mxCell id="129" value="" style="edgeStyle=elbowEdgeStyle;elbow=horizontal;rounded=1;startArrow=none;endArrow=none;html=1;endFill=0;align=center;labelBackgroundColor=none;entryX=0.4;entryY=-0.033;entryDx=0;entryDy=0;entryPerimeter=0;exitX=1;exitY=0.5;exitDx=0;exitDy=0;" edge="1" parent="1" source="78">
                    <mxGeometry relative="1" as="geometry">
                        <mxPoint x="684" y="310" as="sourcePoint"/>
                        <mxPoint x="610" y="630" as="targetPoint"/>
                        <mxPoint x="10" as="offset"/>
                        <Array as="points">
                            <mxPoint x="610" y="470"/>
                        </Array>
                    </mxGeometry>
                </mxCell>
                <mxCell id="130" value="" style="ellipse;whiteSpace=wrap;html=1;aspect=fixed;strokeWidth=2;rotatable=0;connectable=0;deletable=0;" vertex="1" parent="129">
                    <mxGeometry width="20" height="20" relative="1" as="geometry">
                        <mxPoint x="-10" y="4" as="offset"/>
                    </mxGeometry>
                </mxCell>
                <mxCell id="131" value="" style="shape=stencil(vVNRbsMgDD2NPycxqKb9Tm13gN0gA6dBpRABbbOdfgEnWpDSpZmmRSiI5+eHbWwQ29BULQJnDYgdcM5Z/+uP1/JYhRZlJKzWHSqCQ/TuiFet4uCubYNex2QVe2A7YC+QNBiI7XsljwfvzlYlG6G0Sh7w1zlqSaqdx2WxkU1xSmec7wHac7zWWaRU+lvvUaqdjUF/porlLas8slUaEbtIxSP3t6HGRh8sIRJtRE9wV95xmdBOWikzxP9B0Gai9UBvm3Hyvi9FbcxMqYALlr9VubZVao2Sd4s9+pzcBb8Tfyry+6HUS7JG24nsKDTq8r/S3fxPvM+/1pXGBVznmody7ilv9Q8N3HKbZOG5WSZSNg9dvP8C);whiteSpace=wrap;html=1;;connectable=0;allowArrows=0;rotatable=1;rotation=180;editable=0;expand=0;aspect=fixed;" vertex="1" parent="1">
                    <mxGeometry x="580" y="399" width="30" height="30" as="geometry"/>
                </mxCell>
                <mxCell id="132" value="&lt;span style=&quot;color: rgb(63, 63, 63);&quot;&gt;&lt;font style=&quot;font-size: 14px;&quot;&gt;mTLS&lt;/font&gt;&lt;/span&gt;" style="text;html=1;align=center;verticalAlign=middle;resizable=0;points=[];autosize=1;strokeColor=none;fillColor=none;" vertex="1" parent="1">
                    <mxGeometry x="556" y="448" width="60" height="30" as="geometry"/>
                </mxCell>
                <mxCell id="133" value="" style="edgeStyle=elbowEdgeStyle;rounded=1;elbow=horizontal;endArrow=classic;html=1;endFill=1;align=left;labelBackgroundColor=none;entryX=0;entryY=0.5;entryDx=0;entryDy=0;" edge="1" parent="1" target="82">
                    <mxGeometry width="50" height="50" relative="1" as="geometry">
                        <mxPoint x="220" y="660" as="sourcePoint"/>
                        <mxPoint x="270" y="710" as="targetPoint"/>
                        <mxPoint x="5" as="offset"/>
                    </mxGeometry>
                </mxCell>
            </root>
        </mxGraphModel>
    </diagram>
</mxfile>